#!OML:ASF X:\für Bonn\!DataBase\2005_08_11_Bastian_Final\c3d\Bastian.ASF
:FULLY-SPECIFIED
:DEGREES
46
root 0.0680617 16.3379 1.21246 136.579 -14.191 -172.264
lowerback 51.1733 -6.38952 5.74932
upperback 15.7677 -15.3936 5.85227
thorax -1.45698 -12.1897 9.39495
lowerneck -8.30661 -5.72203 -10.6479
upperneck -9.75499 -5.73554 9.6358
head -0.925419 -2.30247 4.52746
rclavicle 4.05521e-014 -8.11041e-014
rhumerus -43.9512 36.0965 -97.6212
rradius 36.1453
rwrist -29.2419
rhand -35.4433 10.1086
rfingers 7.12502
rthumb -8.57263 -19.6974
lclavicle 4.05521e-014 -8.11041e-014
lhumerus 50.1212 -19.8918 77.327
lradius 117.395
lwrist -21.6758
lhand -53.0048 -25.3268
lfingers 7.12502
lthumb -25.4703 2.99111
rfemur -89.8853 5.58862 41.5614
rtibia 140.013
rfoot 14.6947 -7.78367
rtoes -15.9046
lfemur 25.8112 -1.43367 -15.313
ltibia 40.1102
lfoot -15.5384 -9.01765
ltoes 8.44398
47
root 0.0580862 16.3309 1.23002 136.408 -13.9803 -172.239
lowerback 51.6352 -6.37423 5.93751
upperback 15.815 -15.4571 5.95536
thorax -1.42279 -12.3092 9.47168
lowerneck -8.15196 -5.64191 -10.4798
upperneck -10.1678 -5.61086 9.61831
head -1.08809 -2.23503 4.51062
rclavicle -7.95139e-015 -5.24792e-014
rhumerus -44.2127 35.8179 -97.6239
rradius 36.2208
rwrist -28.8671
rhand -35.3956 10.1911
rfingers 7.12502
rthumb -8.52652 -19.6168
lclavicle -7.95139e-015 -5.24792e-014
lhumerus 50.3055 -19.725 77.1692
lradius 117.751
lwrist -21.4314
lhand -52.9672 -25.46
lfingers 7.12502
lthumb -25.4343 2.86313
rfemur -90.8011 5.65637 41.7009
rtibia 139.968
rfoot 14.3515 -7.69764
rtoes -15.1274
lfemur 25.9525 -1.42834 -15.2958
ltibia 40.1461
lfoot -15.5712 -8.9205
ltoes 8.70224
48
root 0.0504521 16.325 1.24834 136.273 -13.7706 -172.212
lowerback 52.0539 -6.35339 6.09787
upperback 15.8503 -15.5108 6.05783
thorax -1.39527 -12.4173 9.5551
lowerneck -7.94996 -5.56514 -10.3524
upperneck -10.5933 -5.49154 9.62002
head -1.2594 -2.17095 4.50708
rclavicle -1.39149e-014 -6.44062e-014
rhumerus -44.448 35.5497 -97.6132
rradius 36.2378
rwrist -28.4496
rhand -35.3244 10.3219
rfingers 7.12502
rthumb -8.45784 -19.4887
lclavicle -1.39149e-014 -6.44062e-014
lhumerus 50.5266 -19.5732 76.921
lradius 118.214
lwrist -21.2325
lhand -53.0135 -25.3193
lfingers 7.12502
lthumb -25.4787 2.99748
rfemur -91.5716 5.72532 41.8012
rtibia 139.887
rfoot 13.9437 -7.50301
rtoes -14.158
lfemur 26.0607 -1.40934 -15.2515
ltibia 40.1622
lfoot -15.6044 -8.82259
ltoes 8.96354
49
root 0.0454432 16.3216 1.26683 136.159 -13.5365 -172.173
lowerback 52.4252 -6.30978 6.24886
upperback 15.9015 -15.5483 6.1717
thorax -1.3418 -12.5211 9.64054
lowerneck -7.77299 -5.48103 -10.202
upperneck -11.0208 -5.35932 9.59761
head -1.43025 -2.09956 4.49196
rclavicle 5.24792e-014 -1.74931e-014
rhumerus -44.6276 35.2822 -97.5782
rradius 36.2692
rwrist -28.0588
rhand -35.2845 10.4388
rfingers 7.12502
rthumb -8.41932 -19.3733
lclavicle 5.24792e-014 -1.74931e-014
lhumerus 50.8849 -19.4241 76.5405
lradius 118.752
lwrist -21.0672
lhand -53.1186 -24.8627
lfingers 7.12502
lthumb -25.5794 3.43961
rfemur -92.1305 5.76385 41.9032
rtibia 139.754
rfoot 13.4427 -7.27397
rtoes -13.7483
lfemur 26.1328 -1.37032 -15.1616
ltibia 40.1953
lfoot -15.6142 -8.73247
ltoes 9.1647
